<svg width="270" height="270" viewBox="0 0 270 270" fill="none" xmlns="http://www.w3.org/2000/svg">
<rect width="270" height="270" rx="44.6943" fill="#FCFBFA"/>
<path d="M214.682 117.391H170.297C170.415 118.089 170.512 118.798 170.609 119.507H100.002C99.8726 120.442 99.7432 121.387 99.6353 122.322H54.98C54.7642 123.719 54.5701 125.126 54.4191 126.555H99.2255C99.15 127.49 99.096 128.436 99.0421 129.37H171.569C171.602 130.069 171.634 130.778 171.656 131.487H216.408V129.231C216.117 125.191 215.545 121.237 214.682 117.391Z" fill="#1D1C1A"/>
<path d="M171.569 140.642H99.0421C99.0852 141.587 99.15 142.522 99.2255 143.457H54.4191C54.5701 144.875 54.7534 146.283 54.98 147.69H99.6353C99.7432 148.636 99.8619 149.57 100.002 150.505H170.609C170.512 151.214 170.404 151.913 170.297 152.622H214.682C215.545 148.775 216.117 144.821 216.408 140.782V138.525H171.656C171.634 139.235 171.602 139.933 171.569 140.642Z" fill="#1D1C1A"/>
<path d="M168.377 161.785H102.213C102.451 162.73 102.71 163.665 102.968 164.6H59.5858C60.1467 166.028 60.7507 167.436 61.3871 168.833H104.252C104.565 169.778 104.878 170.713 105.212 171.648H165.357C165.098 172.357 164.839 173.055 164.569 173.764H206.711C209.16 169.305 211.188 164.589 212.762 159.668H168.873C168.711 160.377 168.538 161.075 168.366 161.785H168.377Z" fill="#1D1C1A"/>
<path d="M160.6 182.929H110.001C110.465 183.875 110.95 184.82 111.446 185.744H71.9253C73.101 187.195 74.3199 188.602 75.5819 189.977H113.798C114.359 190.923 114.93 191.868 115.513 192.792H155.099C154.656 193.501 154.203 194.21 153.74 194.909H190.057C194.684 190.708 198.816 185.97 202.375 180.812H161.614C161.279 181.522 160.956 182.231 160.61 182.929H160.6Z" fill="#1D1C1A"/>
<path d="M146.966 204.063H123.635C124.422 205.019 125.221 205.954 126.04 206.878H97.8125C108.966 212.658 121.629 215.967 135.058 216C135.144 216 135.219 216 135.295 216C135.37 216 135.457 216 135.532 216C152.424 215.946 168.107 210.767 181.083 201.936H148.648C148.088 202.645 147.527 203.354 146.955 204.052L146.966 204.063Z" fill="#1D1C1A"/>
<path d="M123.635 65.9475H146.966C147.538 66.6458 148.099 67.3549 148.659 68.0641H181.094C168.107 59.2324 152.435 54.0537 135.543 54C135.457 54 135.381 54 135.306 54C135.23 54 135.144 54 135.069 54C121.629 54.043 108.977 57.3414 97.8235 63.1218H126.051C125.232 64.0458 124.433 64.9912 123.646 65.9367L123.635 65.9475Z" fill="#1D1C1A"/>
<path d="M110.001 87.093H160.6C160.945 87.7913 161.279 88.5005 161.603 89.2096H202.365C198.805 84.0524 194.674 79.3142 190.047 75.1133H153.729C154.193 75.8116 154.646 76.5208 155.088 77.2299H115.502C114.92 78.1646 114.348 79.0994 113.787 80.0448H75.5712C74.2985 81.4093 73.0796 82.8168 71.9147 84.278H111.436C110.94 85.2128 110.465 86.1475 109.99 87.093H110.001Z" fill="#1D1C1A"/>
<path d="M102.224 108.226H168.387C168.56 108.924 168.733 109.633 168.894 110.342H212.784C211.209 105.422 209.181 100.705 206.733 96.2461H164.591C164.86 96.9445 165.119 97.6536 165.378 98.3627H105.233C104.899 99.2974 104.575 100.232 104.273 101.178H61.4086C60.7722 102.564 60.1682 103.971 59.6073 105.411H102.99C102.731 106.346 102.472 107.28 102.235 108.226H102.224Z" fill="#1D1C1A"/>
</svg>
